<?xml version="1.0" encoding="UTF-8"?>
<svg width="123px" height="117px" viewBox="0 0 123 117" version="1.1" xmlns="http://www.w3.org/2000/svg" xmlns:xlink="http://www.w3.org/1999/xlink">
    <!-- Generator: Sketch 48.2 (47327) - http://www.bohemiancoding.com/sketch -->
    <title>call-out/mortgage</title>
    <desc>Created with Sketch.</desc>
    <defs></defs>
    <g id="Symbols" stroke="none" stroke-width="1" fill="none" fill-rule="evenodd">
        <g id="call-out/mortgage" fill="#B3EAFF">
            <g id="Page-1" transform="translate(9.000000, 9.000000)">
                <path d="M63.564994,76.4619151 L76.435006,76.4619151 L76.435006,57.5388819 L63.564994,57.5388819 L63.564994,76.4619151 Z M60.0061587,80.6126608 C60.3701396,80.857338 60.8094822,81 61.282497,81 L78.7183047,81 C78.7247185,81 78.7311322,80.998406 78.737546,80.998406 C79.989031,80.9872481 81,79.9862234 81,78.7309575 L81,55.2698395 C81,54.0074007 79.9818155,53 78.7215116,53 L61.282497,53 C60.0125724,53 59,54.0129796 59,55.2658545 L59,55.2698395 L59,78.7309575 C59,78.7915291 59.0128275,78.8489127 59.0168361,78.9078902 C59.0489049,79.3095753 59.1755767,79.6841626 59.3896359,79.9997723 C59.5531868,80.2412615 59.7632375,80.449277 60.0061587,80.6126608 Z" id="Fill-1"></path>
                <path d="M102.701432,6.10621469 L102.69739,6.10621469 L72.6599677,6.10621469 C71.3890044,6.10621469 70.3581659,7.14054759 70.3581659,8.41581921 L70.3581659,8.41663045 C70.3581659,9.69109083 71.3890044,10.7254237 72.6599677,10.7254237 L100.395588,10.7254237 L100.395588,47.8348544 C89.4929545,36.8960742 59.3997459,6.7008547 54.6958882,1.98105172 C54.5859321,1.75552658 54.4468699,1.53973635 54.2592978,1.35152832 C53.7774313,0.867217152 53.1419496,0.650615674 52.517787,0.682254092 C51.9025179,0.661973055 51.2815893,0.881008257 50.8126588,1.35152832 C50.6267036,1.53892511 50.48845,1.75309286 50.3793024,1.97861799 C45.6261261,6.74709547 15.4278124,37.0485876 4.6036036,47.9086774 L4.6036036,10.7254237 L20.7889813,10.7254237 C22.0696466,10.7254237 23.0907831,9.6943358 23.0907831,8.41987542 L23.0907831,4.61920904 L29.6040656,4.61920904 L29.6040656,8.41581921 C29.6040656,9.69109083 30.6252021,10.7254237 31.9058674,10.7254237 C33.1865327,10.7254237 34.2076692,9.6943358 34.2076692,8.41987542 L34.2076692,2.31041576 C34.2076692,1.02540924 33.1800647,0 31.9091014,0 L31.9058674,0 L20.7889813,0 C20.7299607,0 20.6757912,0.0129798638 20.6191961,0.0178473128 C20.491453,0.0267709691 20.3669439,0.0421845574 20.2464772,0.0713892511 C20.0451605,0.120874982 19.8567799,0.198754165 19.6797182,0.297725627 C19.4913375,0.402375779 19.3126588,0.524873244 19.1606607,0.676575402 C19.0571726,0.781225554 18.962578,0.895610604 18.8793024,1.01891931 C18.6319011,1.38722295 18.4871795,1.83178328 18.4871795,2.31041576 L18.4871795,6.10621469 L2.37860938,6.10621469 C1.25075075,6.10621469 0.315315315,6.92232363 0.118849619,7.9972186 C0.0485100485,8.21868753 0,8.45070259 0,8.69569752 L0,53.6903955 C0,54.9664783 1.02113652,56 2.3018018,56 C3.23642874,56 4.02714253,55.4483558 4.38935089,54.6565841 L52.5363825,6.34715341 L101.056133,55.0305664 C101.167706,55.1449515 101.291407,55.2471679 101.425618,55.3364045 C101.437745,55.3437056 101.449873,55.3485731 101.462,55.3558743 C101.574382,55.4280748 101.693232,55.4929741 101.818549,55.5448935 C101.875953,55.5684195 101.934973,55.5805882 101.992377,55.5992467 C102.076461,55.6260177 102.156503,55.6576561 102.243821,55.6746922 C102.392585,55.7047081 102.543775,55.7201217 102.694156,55.7201217 C102.695773,55.7201217 102.696581,55.7201217 102.69739,55.7201217 C102.737006,55.7201217 102.773389,55.7103868 102.813005,55.7087643 C102.921344,55.7030856 103.030492,55.6974069 103.138831,55.6763146 C104.062948,55.4978415 104.780088,54.7742141 104.955532,53.8518325 C104.972511,53.7666522 104.974936,53.6806606 104.981404,53.594669 C104.986255,53.5338259 105,53.4762277 105,53.4137621 L105,8.41581921 C105,7.13081269 103.971587,6.10621469 102.701432,6.10621469" id="Fill-3"></path>
                <path d="M96.7040323,56.8026493 C95.4362903,56.8026493 94.4072581,57.8348779 94.4072581,59.107555 L94.4072581,95.3901884 L51.9024194,95.3901884 L51.9024194,55.3049058 C51.9024194,54.0322286 50.8741935,53 49.6072581,53 L25.7032258,53 C25.3854839,53 25.0830645,53.0647673 24.808871,53.1813484 L23.7467742,54.1018534 C23.5330645,54.4524064 23.4064516,54.8628691 23.4064516,55.3049058 C23.4064516,55.3049058 23.4056452,86.4968305 23.4064516,95.3901884 L10.5927419,95.3901884 L10.5927419,59.1504634 C10.5927419,57.8777862 9.56451613,56.8455576 8.29677419,56.8455576 C7.02903226,56.8455576 6,57.8777862 6,59.1504634 L6,97.6950942 C6,98.9677714 7.02903226,100 8.29677419,100 L25.6951613,100 C26.9048387,100 27.9475806,99.0212044 27.9991935,97.7104765 C28.0282258,96.9640335 27.9991935,57.6098116 27.9991935,57.6098116 L47.3104839,57.6098116 L47.3104839,97.6950942 C47.3104839,98.9677714 48.3387097,100 49.6072581,100 L96.7040323,100 C97.9814516,100 99,98.9710097 99,97.6983326 L99,59.107555 C99,57.8348779 97.9717742,56.8026493 96.7040323,56.8026493" id="Fill-4"></path>
            </g>
        </g>
    </g>
</svg>