<?xml version="1.0" encoding="UTF-8"?>
<svg width="123px" height="117px" viewBox="0 0 123 117" version="1.1" xmlns="http://www.w3.org/2000/svg" xmlns:xlink="http://www.w3.org/1999/xlink">
    <!-- Generator: Sketch 48.2 (47327) - http://www.bohemiancoding.com/sketch -->
    <title>call-out/treasury</title>
    <desc>Created with Sketch.</desc>
    <defs>
        <polygon id="path-1" points="0.000228169014 0.306482758 107.640482 0.306482758 107.640482 72.9539916 0.000228169014 72.9539916"></polygon>
    </defs>
    <g id="Symbols" stroke="none" stroke-width="1" fill="none" fill-rule="evenodd">
        <g id="call-out/treasury">
            <g id="Page-1" transform="translate(8.000000, 5.000000)">
                <path d="M75.4430119,47.6811594 C66.9722652,47.6811594 60.1046358,40.6491228 60.1046358,31.9748284 C60.1046358,23.3012967 66.9722652,16.2692601 75.4430119,16.2692601 C83.9145035,16.2692601 90.7821328,23.3012967 90.7821328,31.9748284 C90.7821328,40.6491228 83.9145035,47.6811594 75.4430119,47.6811594 M49.5562432,35.7307399 C41.0854965,35.7307399 34.2178672,28.6987033 34.2178672,20.0251716 C34.2178672,11.3508772 41.0854965,4.31884058 49.5562432,4.31884058 C56.5102859,4.31884058 62.3722423,9.0617849 64.2532233,15.5560641 C59.1965503,19.1762014 55.8867687,25.1784897 55.8867687,31.9748284 C55.8867687,32.7520976 55.93519,33.5171625 56.0186236,34.2707857 C54.0542089,35.2067124 51.8655664,35.7307399 49.5562432,35.7307399 M75.4430119,11.9504195 C72.8141081,11.9504195 70.3073749,12.4851259 68.0174202,13.4485126 C65.3587187,5.62318841 58.1052089,0 49.5562432,0 C38.7560598,0 30,8.96567506 30,20.0251716 C30,31.0846682 38.7560598,40.0495805 49.5562432,40.0495805 C52.1821672,40.0495805 54.6851756,39.5156369 56.9721506,38.5545385 C59.6308521,46.3806255 66.8940462,52 75.4430119,52 C86.2439402,52 95,43.0343249 95,31.9748284 C95,20.9160946 86.2439402,11.9504195 75.4430119,11.9504195" id="Fill-1" fill="#B3EAFF"></path>
                <g id="Group-5" transform="translate(0.000000, 34.000000)">
                    <mask id="mask-2" fill="white">
                        <use xlink:href="#path-1"></use>
                    </mask>
                    <g id="Clip-4"></g>
                    <path d="M89.3664254,33.8524 C84.2037211,32.3690021 80.1415521,28.3109363 78.6569324,23.1517213 L89.3664254,23.1517213 L89.3664254,33.8524 Z M89.3664254,53.4800634 C81.8170732,55.1481261 75.8770732,61.0832373 74.2061155,68.626376 L19.4904254,68.626376 C17.8202282,61.0832373 11.8794676,55.1481261 4.33087606,53.4793035 L4.33087606,38.2987938 C11.8802282,36.6292113 17.8202282,30.69486 19.4904254,23.1517213 L74.2068761,23.1517213 C75.8778338,30.69486 81.8170732,36.6299712 89.3664254,38.2987938 L89.3664254,53.4800634 Z M89.3664254,68.626376 L78.6569324,68.626376 C80.1415521,63.4679209 84.2029606,59.4090951 89.3664254,57.9264572 L89.3664254,68.626376 Z M4.33087606,68.626376 L4.33087606,57.9256973 C9.49358028,59.4090951 13.5549887,63.4679209 15.0396085,68.626376 L4.33087606,68.626376 Z M4.33087606,23.1517213 L15.0396085,23.1517213 C13.5557493,28.3101764 9.49358028,32.3690021 4.33087606,33.8524 L4.33087606,23.1517213 Z M105.478961,9.32541997 L105.475918,9.32541997 L105.475158,9.32541997 L95.8623972,9.32541997 C94.6667915,9.32541997 93.6970732,10.2943402 93.6970732,11.4889618 C93.6970732,12.6835834 94.6667915,13.6525036 95.8623972,13.6525036 L103.309834,13.6525036 L103.309834,59.1271584 L93.6970732,59.1271584 L93.6970732,20.9881794 C93.6970732,19.7844386 92.7303972,18.8246376 91.5355521,18.8246376 L91.5317493,18.8246376 L18.2742845,18.8246376 L18.2742845,13.6525036 L57.1154958,13.6525036 C58.3111014,13.6525036 59.2808197,12.6927026 59.2808197,11.4889618 C59.2808197,10.2852209 58.3141437,9.32541997 57.1192986,9.32541997 L16.1097211,9.32541997 L16.1089606,9.32541997 C16.0587634,9.32541997 16.012369,9.33681903 15.9621718,9.33985878 C15.423693,9.37633578 14.9369324,9.60051731 14.5779465,9.95920777 C14.4798338,10.0572397 14.3916085,10.1643909 14.3132704,10.2791414 C14.080538,10.6249129 13.9436366,11.0405987 13.9436366,11.4889618 L13.9436366,18.8246376 L12.6970732,18.8246376 L12.6970732,4.63432632 L33.2216366,4.63432632 C34.4172423,4.63432632 35.3862,3.67452537 35.3862,2.47078451 C35.3862,1.26704365 34.4202845,0.306482758 33.2246789,0.306482758 L10.5317493,0.306482758 C10.4762282,0.306482758 10.4252704,0.318641757 10.372031,0.322441444 C10.251862,0.331560693 10.1347352,0.345999504 10.0221718,0.373357251 C9.83279155,0.419713433 9.65481972,0.493427362 9.48977746,0.585379789 C9.31104507,0.683411715 9.14296056,0.797402327 9.00073521,0.94027056 C8.90262254,1.03830249 8.81363662,1.14545366 8.73605915,1.26096415 C8.5025662,1.60597573 8.36642535,2.02242144 8.36642535,2.47078451 L8.36642535,18.8246376 L2.16555211,18.8246376 C2.05527042,18.8246376 1.95031268,18.8413562 1.84535493,18.856555 C1.80732676,18.8618746 1.76625634,18.8603547 1.72898873,18.868714 C0.742538028,19.0700974 0.000228169014,19.9425056 0.000228169014,20.9881794 L0.000228169014,70.7899178 C0.000228169014,71.8865075 0.810988732,72.7824737 1.87577746,72.924582 C1.97160845,72.937501 2.06591831,72.9542196 2.16555211,72.9542196 L91.5317493,72.9542196 C91.6815803,72.9542196 91.8276085,72.9390208 91.9690732,72.9101432 C92.9608479,72.7095197 93.6970732,71.8386315 93.6970732,70.7929576 L93.6970732,63.454242 L105.475918,63.454242 C106.680651,63.454242 107.640482,62.4883615 107.640482,61.2937399 L107.640482,11.4889618 C107.640482,10.2852209 106.674566,9.32541997 105.478961,9.32541997 Z" id="Fill-3" fill="#B3EAFF" mask="url(#mask-2)"></path>
                </g>
                <path d="M50.9387637,87.9428127 C50.3861855,88.3593552 49.7059108,88.6693052 48.8987134,88.8764425 L48.8987134,82.5504391 C49.3460385,82.679711 49.7368676,82.8059589 50.0464351,82.925403 C50.7468318,83.1839466 51.2730966,83.5324514 51.622908,83.9716732 C51.9734933,84.4108949 52.148399,84.9468816 52.148399,85.5796331 C52.148399,86.5608894 51.7451872,87.3493719 50.9387637,87.9428127 Z M43.1012866,75.4782879 C42.0611396,75.2144525 41.3924736,74.9778321 41.1014801,74.7684269 C40.4266228,74.2906504 40.0891942,73.5936409 40.0891942,72.6758866 C40.0891942,71.6560756 40.5156235,70.8063591 41.3684822,70.128249 C41.8127116,69.7759644 42.3946987,69.5189327 43.1012866,69.3503502 L43.1012866,75.4782879 Z M57.0279578,81.0846026 C56.3794138,80.0254808 55.4081455,79.1409894 54.1126052,78.4303724 C53.159911,77.9140411 51.9108058,77.4808671 50.3637419,77.1323624 L48.8987134,76.8004892 L48.8987134,69.7986437 C49.6973977,70.1773874 50.2755151,70.6392885 50.611396,71.1941745 C50.9751379,71.7951751 51.1771307,72.539811 51.2166006,73.4318621 L57.0674277,73.4318621 C57.0279578,72.1398999 56.8793654,71.0966537 56.6216504,70.3028794 C56.3639354,69.5083491 55.9406017,68.7334742 55.3516494,67.9774986 C54.7626971,67.222279 54.0166393,66.5630684 53.1103802,66.0021345 C52.204895,65.4396887 51.0943214,64.997443 49.7786592,64.6746415 C49.4776047,64.6005559 49.1719067,64.5378099 48.8623392,64.4803558 C48.6843378,63.0848249 47.4785721,62 46.000387,62 C44.5601238,62 43.3737061,63.0281267 43.1492696,64.3737632 C42.1292445,64.5219344 41.1339847,64.7532629 40.1689078,65.091184 C38.4492599,65.6914286 37.0716842,66.6598332 36.033859,67.997154 C34.9952597,69.3337187 34.4767341,71.0422235 34.4767341,73.1219122 C34.4767341,74.2846026 34.658605,75.3142412 35.0223469,76.2115842 C35.384541,77.1096832 35.8883622,77.8588549 36.529941,78.4598555 C37.1707459,79.0601001 38.1064139,79.6059144 39.336171,80.0965425 C40.1712296,80.4185881 41.4280739,80.7769205 43.1012866,81.1692718 L43.1012866,88.7615342 C42.8985199,88.6972763 42.696527,88.6322624 42.5084647,88.5536409 C41.5170746,88.1333185 40.8097127,87.562557 40.386379,86.8390884 C40.0698462,86.2962979 39.8910709,85.553174 39.851601,84.6104725 L34,84.6104725 C34.0657831,85.8767315 34.2275322,86.9230017 34.4860211,87.7492829 C34.7437361,88.5763202 35.1508175,89.3670706 35.7057173,90.1222902 C36.2613911,90.8782657 36.9525007,91.5306726 37.7790461,92.0795108 C38.6048176,92.6283491 39.5737641,93.064547 40.6843378,93.3873485 C41.5085615,93.6315286 42.3544549,93.8114508 43.2212441,93.9308949 C43.5633162,95.1215564 44.6715682,96 46.000387,96 C47.3470059,96 48.4691884,95.0981212 48.7942343,93.8832685 C49.1765503,93.8280823 49.5565445,93.7638243 49.9373126,93.6874708 C51.3179839,93.4092718 52.4788623,93.0290161 53.4183999,92.5444358 C54.3571636,92.0598555 55.1442391,91.4951417 55.7788527,90.8487827 C56.4126923,90.2039355 56.9420528,89.3738744 57.3653865,88.3593552 C57.7887201,87.345592 58,86.2063369 58,84.9400778 C58,83.4288827 57.675728,82.1437243 57.0279578,81.0846026 Z" id="Fill-6" fill="#B3EAFF"></path>
                <path d="M78.627709,38.1269417 C78.4578173,38.3491019 78.248452,38.5149029 78,38.625 L78,35.25 C78.1373839,35.3188107 78.2577399,35.3863107 78.3529412,35.450534 C78.5684985,35.5881553 78.7302632,35.7742718 78.8382353,36.0082282 C78.9458204,36.2428398 79,36.5292233 79,36.866068 C79,37.3896845 78.875774,37.8104126 78.627709,38.1269417 Z M75,30.75 C74.6546973,30.604555 74.4325678,30.4739928 74.3361169,30.3589898 C74.1123173,30.0958358 74,29.7115905 74,29.2062538 C74,28.6447685 74.1415449,28.1766386 74.4250522,27.8038936 C74.5720251,27.6090649 74.7653445,27.4676789 75,27.375 L75,30.75 Z M81.5544902,34.1035405 C81.2570994,33.5429913 80.812166,33.0741329 80.2179608,32.6982659 C79.7816724,32.4244942 79.2087918,32.1955925 78.4998952,32.0109104 L77.829037,31.8353324 L77.829037,28.128685 C78.1950121,28.328974 78.4595515,28.5741329 78.6134339,28.8674133 C78.7799958,29.1854046 78.87221,29.5801301 78.8912292,30.0522399 L81.5723567,30.0522399 C81.5544902,29.3681358 81.4864822,28.8160405 81.3683328,28.3953035 C81.249607,27.9752168 81.0565336,27.5648844 80.7862307,27.1649566 C80.5165042,26.7643786 80.1741591,26.4158237 79.7591952,26.1186416 C79.3442314,25.8208092 78.834748,25.5867052 78.2318977,25.4156792 C78.0941528,25.3773121 77.9541025,25.3434971 77.8123232,25.3129335 C77.7304831,24.5742052 77.1777743,24 76.5,24 C75.8400922,24 75.2960285,24.5442919 75.1934402,25.2570087 C74.7260296,25.3350434 74.2701457,25.457948 73.8280939,25.6361272 C73.0396626,25.9541185 72.4079954,26.4671965 71.9319396,27.174711 C71.4564602,27.8828757 71.2184324,28.7874277 71.2184324,29.8877168 C71.2184324,30.5035405 71.3020015,31.0484827 71.4685633,31.5238439 C71.6351252,31.9992052 71.8650844,32.3958815 72.1595934,32.7138728 C72.4535261,33.0318642 72.8823221,33.3205925 73.445405,33.5807081 C73.8286702,33.7510838 74.4050089,33.9403179 75.1715393,34.1484104 L75.1715393,38.1678468 C75.0781725,38.1333815 74.9859583,38.0995665 74.9000838,38.0572977 C74.445929,37.8355491 74.1214503,37.5325145 73.9272241,37.1501445 C73.7819868,36.8627168 73.7001467,36.4692919 73.6822802,35.9705202 L71,35.9705202 C71.0305459,36.6403179 71.1048936,37.1943642 71.2230431,37.6313584 C71.3411925,38.0696532 71.5273499,38.4884393 71.7826679,38.8883671 C72.0368333,39.2882948 72.3532432,39.6335983 72.7318977,39.9242775 C73.1105522,40.2149566 73.5549094,40.4458092 74.0638164,40.6168353 C74.4418946,40.7455925 74.8291942,40.841185 75.2262915,40.904263 C75.383632,41.5350434 75.8913864,42 76.5,42 C77.1178351,42 77.6313528,41.5226879 77.7806245,40.8789017 C77.9558315,40.850289 78.1298858,40.8158237 78.3045164,40.7755058 C78.9379126,40.6285405 79.4698732,40.4269509 79.9003982,40.170737 C80.3303469,39.9138728 80.6911349,39.6147399 80.9821859,39.2726879 C81.2732369,38.9312861 81.5147228,38.4916908 81.708949,37.954552 C81.9025988,37.4180636 82,36.8145954 82,36.1447977 C82,35.3442919 81.8513046,34.6640896 81.5544902,34.1035405 Z" id="Fill-8" fill="#B3EAFF"></path>
                <path d="M52.7636888,22.9710983 C52.5106628,23.1792991 52.1988473,23.3346821 51.8288184,23.4378613 L51.8288184,20.2749277 C52.0340058,20.3394147 52.2126801,20.4026734 52.3544669,20.4622471 C52.6760807,20.5912211 52.9170029,20.7662572 53.0772334,20.985513 C53.2380403,21.2053829 53.3181556,21.4731575 53.3181556,21.7894509 C53.3181556,22.2801662 53.1337176,22.6744581 52.7636888,22.9710983 Z M49.1717579,16.739198 C48.6945245,16.6071532 48.3878963,16.4886199 48.254755,16.3842124 C47.9458213,16.1453035 47.7907781,15.7964595 47.7907781,15.3376806 C47.7907781,14.8279263 47.9867435,14.4029263 48.3775216,14.0645231 C48.5809798,13.8876445 48.8472622,13.7592847 49.1717579,13.6751445 L49.1717579,16.739198 Z M55.5544669,19.5422327 C55.2576369,19.0128251 54.8126801,18.5700145 54.2178674,18.2150289 C53.7821326,17.9564668 53.2092219,17.7402818 52.4997118,17.5658598 L51.8288184,17.4000361 L51.8288184,13.8993136 C52.1948127,14.0884754 52.4599424,14.3194003 52.6132565,14.5970014 C52.7804035,14.8973266 52.8726225,15.2701228 52.8910663,15.7160043 L55.5729107,15.7160043 C55.5544669,15.0699061 55.4864553,14.5484827 55.3682997,14.1511199 C55.2501441,13.7543714 55.0564841,13.3668353 54.7867435,12.9891257 C54.5164265,12.610802 54.1740634,12.2816113 53.7590778,12.0009393 C53.3440922,11.7196532 52.8351585,11.4985549 52.2322767,11.3370303 C52.0939481,11.3001806 51.9538905,11.2688584 51.8121037,11.2399928 C51.7302594,10.5423049 51.1775216,10 50.5002882,10 C49.8403458,10 49.2962536,10.5140535 49.1930836,11.1871749 C48.7256484,11.2608743 48.2697406,11.3769509 47.8276657,11.5452312 C47.0391931,11.8455564 46.4080692,12.3301301 45.9319885,12.9983382 C45.4559078,13.6671604 45.2184438,14.5208454 45.2184438,15.5606214 C45.2184438,16.1422327 45.3020173,16.6569003 45.4685879,17.1058526 C45.6345821,17.5548049 45.8651297,17.9294436 46.1590778,18.2297688 C46.4530259,18.5300939 46.8818444,18.8027818 47.4455331,19.0478324 C47.8282421,19.2093569 48.404611,19.388078 49.1717579,19.5846098 L49.1717579,23.3807442 C49.0783862,23.3481936 48.9855908,23.3162572 48.9002882,23.2763367 C48.4455331,23.0662934 48.1210375,22.7807081 47.9273775,22.4195809 C47.7815562,22.1481214 47.7002882,21.7765535 47.6818444,21.3054913 L45,21.3054913 C45.0299712,21.938078 45.1043228,22.4613439 45.2230548,22.8740607 C45.340634,23.2880058 45.5268012,23.683526 45.7821326,24.0612355 C46.0363112,24.4389451 46.3527378,24.765065 46.7319885,25.0395954 C47.1100865,25.3141257 47.5550432,25.5321532 48.0639769,25.6936777 C48.4414986,25.8152818 48.8293948,25.9055636 49.226513,25.9651373 C49.3832853,26.5608743 49.8916427,27 50.5002882,27 C51.1181556,27 51.6317003,26.5492052 51.7809798,25.941185 C51.956196,25.9135477 52.1302594,25.8816113 52.3048991,25.8435332 C52.9377522,25.7047327 53.4697406,25.5143425 53.9002882,25.2723627 C54.3302594,25.0297688 54.6910663,24.7472543 54.9821326,24.4242052 C55.2731988,24.1017702 55.5146974,23.6865968 55.7089337,23.1792991 C55.90317,22.6726156 56,22.1026734 56,21.4700867 C56,20.7140535 55.8512968,20.0716402 55.5544669,19.5422327 Z" id="Fill-10" fill="#B3EAFF"></path>
            </g>
        </g>
    </g>
</svg>