<?xml version="1.0" encoding="UTF-8"?>
<svg width="123px" height="117px" viewBox="0 0 123 117" version="1.1" xmlns="http://www.w3.org/2000/svg" xmlns:xlink="http://www.w3.org/1999/xlink">
    <!-- Generator: Sketch 48.2 (47327) - http://www.bohemiancoding.com/sketch -->
    <title>call-out/trust</title>
    <desc>Created with Sketch.</desc>
    <defs>
        <polygon id="path-1" points="0 0.619666667 112.308005 0.619666667 112.308005 116.99948 0 116.99948"></polygon>
    </defs>
    <g id="Symbols" stroke="none" stroke-width="1" fill="none" fill-rule="evenodd">
        <g id="call-out/trust">
            <g id="Page-1" transform="translate(5.000000, 0.000000)">
                <path d="M69.485205,20.5310276 C68.7995297,19.8229908 67.6866536,19.8229908 67.0009783,20.5310276 L56.4265009,31.4511046 L53.0017143,27.9153691 C52.315321,27.206591 51.2081887,27.2021426 50.5174875,27.9153691 C49.8260684,28.6285957 49.8296583,29.7703513 50.5153336,30.4783881 L55.1836695,35.2989693 C55.8750887,36.0129373 56.980067,36.0092303 57.6657423,35.3011935 C57.6664603,35.3011935 57.6678963,35.2997107 57.6678963,35.2989693 C58.3686493,34.5761046 69.485205,23.0962707 69.485205,23.0962707 C70.1715983,22.388234 70.1715983,21.2398057 69.485205,20.5310276" id="Fill-1" fill="#B3EAFF"></path>
                <g id="Group-5">
                    <mask id="mask-2" fill="white">
                        <use xlink:href="#path-1"></use>
                    </mask>
                    <g id="Clip-4"></g>
                    <path d="M99.6328823,71.0843467 L99.3086592,71.3738133 C98.78799,71.94668 98.1073823,72.9208133 97.1668746,74.2693467 C95.2006746,77.08688 89.9809438,84.56968 87.2072285,84.56968 C87.0316438,84.56968 86.8317208,84.53588 86.5553054,84.2923467 C82.2169746,80.4729467 74.3521746,72.4372133 68.6091669,66.5690133 C66.5821208,64.49768 64.8575669,62.7357467 63.7119208,61.5943467 C62.6045208,60.4919467 60.9547208,59.95548 58.6651669,59.95548 C56.0444362,59.95548 52.7926438,60.64968 49.6512438,61.32048 C47.5929054,61.75988 45.6501746,62.1750133 43.9543054,62.3899467 C41.0015285,62.7730133 37.9122823,61.03968 36.27639,59.33148 C35.4506208,58.46828 35.18029,57.82608 35.1116208,57.54788 C37.7401746,55.39248 55.3838208,49.6066133 58.2331592,49.57628 C58.8216285,49.7210133 61.0286054,50.70468 62.97829,51.57308 C69.2237131,54.3542133 73.6480977,56.1473467 75.5178131,55.86048 C78.7791669,55.35868 91.6064054,49.1438133 95.1067977,47.40008 C100.334352,49.4627467 107.315144,56.40648 108.032259,64.97088 C106.13299,66.3757467 101.948513,69.4099467 99.6328823,71.0843467 Z M86.96819,93.41748 C86.0511515,95.38048 84.0771285,96.80008 81.7953977,97.2065467 L66.6864285,82.14388 L63.7180054,85.10268 L78.8782592,100.217347 C78.6774669,101.013813 77.9638285,102.28348 76.5878362,103.272347 C75.4526208,104.087013 73.65679,104.81328 71.4915362,103.875547 L58.3009592,90.72388 L55.3325362,93.68268 L67.5843438,105.898347 C66.7385823,106.85948 65.5790285,107.64468 64.3082131,108.05288 C63.1842977,108.41428 61.4849515,108.61968 59.6604362,107.770347 L50.72909,98.8662133 L47.7606669,101.825013 L55.7741054,109.813947 C54.4954669,111.516947 53.0021285,112.607213 51.61049,112.788347 C50.3170746,112.95908 48.9471669,112.341147 47.5624823,110.95968 L44.2150746,107.622147 C44.6827208,106.27188 44.7435669,104.764747 44.2785285,103.24028 C43.5544592,100.863013 41.7751438,98.8029467 39.5803362,97.7144133 C38.7423977,94.7729467 36.1842515,92.07588 33.0524131,90.8573467 C31.8589592,87.9869467 29.3164592,85.01688 25.36059,84.3712133 C23.8559515,81.4115467 20.2008362,78.8531467 17.1063746,78.8531467 C16.7517285,78.8531467 16.4092515,78.8869467 16.0763362,78.9476133 C15.5391515,77.97348 14.8107362,76.2904133 13.9484592,73.34548 L13.8102515,72.8714133 L4.70332077,63.0798133 C7.64305923,54.8248133 17.9669131,46.0160133 23.3126823,44.7671467 L34.4736054,53.1313467 C32.9663592,53.93648 31.8798208,54.7078133 31.4599823,55.3864133 C30.9819054,56.1612133 30.3734438,57.81568 31.6946746,60.1730133 C33.6347977,63.6405467 39.1335515,67.2216133 44.4836669,66.5421467 C46.3551208,66.3038133 48.4777823,65.8514133 50.5300362,65.4137467 C53.4593438,64.7880133 56.4886131,64.14148 58.6651669,64.14148 C60.2497746,64.14148 60.6748285,64.4855467 60.7443669,64.5540133 C61.8813208,65.6867467 63.5910977,67.43568 65.6042362,69.49228 C71.3924438,75.4064133 79.3206977,83.5071467 83.7763746,87.42968 C84.6490823,88.1984133 85.6843362,88.6239467 86.7847823,88.7158133 C87.5792592,90.26628 87.6757438,91.8982133 86.96819,93.41748 Z M39.9993054,106.826547 L37.7297438,109.088547 C37.0065438,109.808747 36.2894285,110.158013 35.5323285,110.158013 C33.8190746,110.158013 31.7398746,108.247013 30.8993285,105.898347 L30.4942669,104.76648 L29.3103746,104.544613 C25.81259,103.89028 24.5991438,102.26528 23.6829746,99.6791467 L23.2805208,98.54208 L22.0914131,98.3193467 C17.4106054,97.44228 16.7534669,93.67488 16.6926208,93.2476133 L16.4857438,91.7569467 L15.0019669,91.4787467 C13.7763515,91.2499467 12.8297592,90.4188133 12.4690285,89.2566133 C12.32039,88.7773467 12.0804823,87.5562133 13.0687977,86.5699467 L16.3240669,83.3251467 C16.4666208,83.18388 16.67089,83.03828 17.1063746,83.03828 C18.9152438,83.03828 21.4655669,85.2933467 21.8306438,86.8204133 L22.20789,88.4029467 L23.8403054,88.4289467 C27.7970438,88.4896133 29.1808592,92.35928 29.4181592,93.13408 L29.7571592,94.2451467 L30.8819438,94.5450133 C33.2166977,95.16988 35.4488823,97.4587467 35.6592362,99.44428 L35.8026592,100.813613 L37.1212823,101.22268 C38.5459515,101.666413 39.8080746,102.966413 40.2609438,104.456213 C40.4626054,105.114013 40.5756054,106.050013 39.9993054,106.826547 Z M29.0565592,18.0391467 C46.5272285,18.0391467 59.6300131,4.97414667 59.6300131,4.97414667 C59.6300131,4.97414667 72.7345362,18.0391467 90.2052054,18.0391467 C90.2052054,29.4462133 88.7475054,38.98128 86.4683823,46.92428 C81.7284669,49.1325467 76.3627054,51.4968133 74.9606362,51.7152133 C73.5915977,51.7152133 67.5799977,49.0389467 64.6898054,47.75108 C61.8178669,46.47188 60.1498131,45.7378133 59.2458131,45.5133467 C58.9954746,45.4518133 58.7242746,45.4223467 58.4156977,45.4223467 C56.2478362,45.4223467 46.0769669,48.2121467 38.8197592,51.1527467 L32.7021131,46.56808 C30.4786208,38.6961467 29.0565592,29.28328 29.0565592,18.0391467 Z M112.285405,65.92508 C112.025505,54.3594133 102.417898,45.2568133 95.5848746,43.1326133 L94.7417208,42.87088 L93.9646285,43.28688 C93.5013285,43.5356133 92.6868592,43.9464133 91.6524746,44.4525467 C93.4604746,36.92728 94.5739592,28.1878133 94.5739592,18.0391467 C94.5739592,15.6341467 92.61819,13.6841467 90.2052054,13.6841467 C74.7233362,13.6841467 62.8374746,2.01274667 62.7192592,1.89488 C61.9004438,1.07848 60.7886977,0.619146667 59.6300131,0.619146667 C58.4730669,0.619146667 57.3630592,1.07761333 56.5451131,1.89228 C56.2478362,2.18174667 44.3167746,13.6841467 29.0565592,13.6841467 C26.6435746,13.6841467 24.6878054,15.6341467 24.6878054,18.0391467 C24.6878054,27.2856133 25.6187515,35.3508133 27.1494669,42.4072133 L24.4618054,40.3913467 L23.6455977,40.47368 C16.2953823,41.2103467 3.16652077,52.7257467 0.311966923,63.05468 L-8.69230769e-05,64.1787467 L10.06039,74.9956133 C10.8748592,77.70568 11.6797669,79.71808 12.5316131,81.1879467 L10.1012438,83.6111467 C8.29411308,85.41208 7.68043615,87.9852133 8.45752846,90.4933467 C9.13205154,92.66348 10.7531669,94.3725467 12.8384515,95.19328 C13.6703054,97.95708 15.9303054,100.964413 20.1469438,102.15868 C21.2082746,104.639947 23.0988515,107.263347 27.4076285,108.405613 C28.9096592,111.507413 31.9667438,114.343147 35.5323285,114.343147 C37.40639,114.343147 39.19179,113.54928 40.6981669,112.047347 L41.7073438,111.04028 L44.5949285,113.919347 C47.0522438,116.37028 49.4139438,116.99948 51.1906515,116.99948 C51.5348669,116.99948 51.8564823,116.976947 52.1537592,116.938813 C54.7544977,116.599947 57.2917823,114.873547 59.2927515,112.123613 C61.3224054,112.729413 63.5006977,112.70948 65.5938054,112.036947 C67.7973054,111.329747 69.7721977,109.946547 71.1447131,108.19588 C73.8306362,108.92388 76.62869,108.399547 79.0399362,106.66708 C81.0339515,105.23708 82.4620977,103.202147 82.9601669,101.245213 C86.3875438,100.49728 89.3455362,98.24568 90.7745515,95.18288 C91.9245438,92.7172133 91.9506208,90.04008 90.9092823,87.5510133 C94.2288746,85.5048133 97.4971823,81.1264133 100.614244,76.6596133 C101.284421,75.6967467 101.924175,74.7824133 102.295336,74.3291467 C103.580059,73.3983467 110.380921,68.4791467 111.479628,67.6194133 L112.308005,66.9737467 L112.285405,65.92508 Z" id="Fill-3" fill="#B3EAFF" mask="url(#mask-2)"></path>
                </g>
            </g>
        </g>
    </g>
</svg>